<?xml version="1.0" encoding="UTF-8" standalone="no"?>
<!-- Created with Inkscape (http://www.inkscape.org/) -->

<svg
   width="100mm"
   height="150mm"
   viewBox="0 0 100 150"
   version="1.1"
   id="svg5"
   inkscape:version="1.4.2 (2aeb623e1d, 2025-05-12)"
   sodipodi:docname="plant133.svg"
   xmlns:inkscape="http://www.inkscape.org/namespaces/inkscape"
   xmlns:sodipodi="http://sodipodi.sourceforge.net/DTD/sodipodi-0.dtd"
   xmlns="http://www.w3.org/2000/svg"
   xmlns:svg="http://www.w3.org/2000/svg">
  <sodipodi:namedview
     id="namedview7"
     pagecolor="#ffffff"
     bordercolor="#666666"
     borderopacity="1.0"
     inkscape:pageshadow="2"
     inkscape:pageopacity="0.0"
     inkscape:pagecheckerboard="0"
     inkscape:document-units="mm"
     showgrid="false"
     inkscape:zoom="0.67081229"
     inkscape:cx="386.84443"
     inkscape:cy="193.04953"
     inkscape:window-width="1854"
     inkscape:window-height="1131"
     inkscape:window-x="0"
     inkscape:window-y="0"
     inkscape:window-maximized="1"
     inkscape:current-layer="layer1"
     inkscape:showpageshadow="0"
     inkscape:deskcolor="#d1d1d1" />
  <defs
     id="defs2">
    <inkscape:path-effect
       effect="taper_stroke"
       id="path-effect1649"
       is_visible="true"
       lpeversion="1"
       stroke_width="6.66"
       attach_start="1e-07"
       end_offset="0.5"
       start_smoothing="0.5"
       end_smoothing="0.5"
       jointype="extrapolated"
       start_shape="center"
       end_shape="center"
       miter_limit="100" />
    <inkscape:path-effect
       effect="taper_stroke"
       id="path-effect1647"
       is_visible="true"
       lpeversion="1"
       stroke_width="7.46"
       attach_start="0.5"
       end_offset="0.4"
       start_smoothing="0.5"
       end_smoothing="0.5"
       jointype="extrapolated"
       start_shape="center"
       end_shape="center"
       miter_limit="100" />
    <inkscape:path-effect
       effect="taper_stroke"
       id="path-effect1645"
       is_visible="true"
       lpeversion="1"
       stroke_width="7.46"
       attach_start="0.4"
       end_offset="0.6"
       start_smoothing="0.5"
       end_smoothing="0.5"
       jointype="extrapolated"
       start_shape="center"
       end_shape="center"
       miter_limit="100" />
  </defs>
  <g
     inkscape:label="Layer 1"
     inkscape:groupmode="layer"
     id="layer1">
    <path
       style="fill:#008000;fill-rule:nonzero;stroke:none;stroke-width:0.264583px;stroke-linecap:butt;stroke-linejoin:miter;stroke-opacity:1"
       d="M 5.1523683,147.35269 C 31.59438,124.21243 53.385237,87.579837 68.504733,57.039042 75.648905,42.607976 80.885723,28.338695 84.457942,17.104967 l 0,0 c 1.633663,-5.137239 2.802872,-9.2729109 3.605229,-12.2786208 l 0,0 c 0.389974,-1.4608831 0.668813,-2.5639766 0.862938,-3.3527495 l 0,-1e-7 c 0.0954,-0.3876483 0.163701,-0.67257393 0.211739,-0.87560585 l 0,-2e-8 c 0,0 0,-5.2e-7 0,-5.2e-7 0.02368,-0.10007437 0.04068,-0.17286312 0.05271,-0.22472512 0,-5e-8 0,-9e-8 0,-1.4e-7 0.0031,-0.0257265 0.0082,-0.0457256 0.01169,-0.0580231 0,-5e-8 0,-1e-7 0,-1.5e-7 0.0036,-0.0125317 0.006,-0.0190449 0.0062,-0.0197289 0,0 0,0 0,-10e-9 0,0 0,-10e-9 0,-10e-9 0,0 0,-10e-9 0,-10e-9 0,0 0,0 0,-10e-9 0,0 0,0 0,0 0,0 0,-10e-9 0,-10e-9 0,0 0,-10e-9 0,-10e-9 0,0 0,-2e-8 0,-2e-8 0,0 0,0 0,0 0,0 0,-1e-8 0,-1e-8 1.2e-5,-3.489e-5 1e-5,-2.991e-5 1e-5,-2.991e-5 0,0 2e-6,-4.98e-6 -1e-5,2.991e-5 0,0 0,0 0,0 0,0 0,1e-8 0,1e-8 0,10e-9 0,10e-9 0,2e-8 0,0 0,0 0,0 0,0 0,10e-9 0,10e-9 0,10e-9 0,10e-9 0,10e-9 0,0 0,10e-9 0,10e-9 0,0 0,0 0,10e-9 0,0 0,0 0,10e-9 0,0 0,10e-9 0,10e-9 -2.38e-4,6.8391e-4 -0.0024,0.007297 -0.0074,0.0193371 0,5e-8 0,9e-8 0,1.4e-7 -0.0049,0.0118295 -0.01338,0.0305956 -0.02698,0.0526918 0,-10e-9 0,1.3e-7 0,1.3e-7 0.01178,-0.0246849 -0.111243,0.23284105 -0.09946,0.20815614 0,1.7e-7 0,3.3e-7 0,4.9e-7 l 0,10e-9 C 89.119084,0.48285998 88.64101,1.4800304 88.68542,1.3871918 l 0,10e-8 c -0.381265,0.7930863 -0.815111,1.6925158 -1.503834,3.111022 l 0,0 C 85.687805,7.5748271 84.085029,10.851037 81.568172,15.939295 l 0,0 C 76.002371,27.191194 68.1019,42.832316 62.536099,54.084215 47.547984,84.359623 26.051292,120.21318 0.76635119,142.34086 Z"
       id="path81"
       sodipodi:nodetypes="cc"
       inkscape:original-d="M 2.9593442,144.84679 C 54.790004,99.488103 89.208493,0.29548276 89.208493,0.29548276"
       inkscape:path-effect="#path-effect1649" />
    <path
       style="fill:#008000;fill-rule:nonzero;stroke:none;stroke-width:0.264583px;stroke-linecap:butt;stroke-linejoin:miter;stroke-opacity:1"
       d="M 38.154816,48.99381 C 42.946408,37.76611 48.721441,28.017575 56.056194,20.067137 63.265035,12.212893 71.215278,7.2274175 77.36333,4.182622 83.46442,1.1610838 87.487602,0.03303276 87.487602,0.03303276 c 0,0 -4.159759,0.28946863 -10.840341,2.34762794 C 69.962092,4.440233 60.832574,8.4309883 52.182064,16.111745 43.493662,23.857955 36.342926,34.114188 31.288062,46.078454 24.18523,62.853066 22.094565,80.056194 21.707838,93.501735 l 0,0 c -0.196188,6.698645 0.05022,12.154775 0.346441,16.077665 l 0,0 c 0.149248,1.97661 0.304543,3.46853 0.429528,4.53692 l 0,0 c 0.06233,0.53278 0.112726,0.92143 0.150628,1.20082 l 0,0 0,0 c 0.01878,0.13845 0.03287,0.23797 0.04324,0.30971 0,0 0,0 0,0 0.0086,0.034 0.01211,0.0619 0.01378,0.079 0.0017,0.0176 0.0019,0.027 0.002,0.0277 0,0 0,0 0,0 0,0 0,0 0,0 0,0 0,0 0,0 0,0 0,0 0,0 0,0 0,0 0,0 0,0 0,0 0,0 0,0 0,0 0,0 0,0 0,0 0,0 0,0 0,0 0,0 0,0 0,0 0,0 0,0 0,0 0,0 0,0 0,0 0,0 0,0 0,0 0,0 0,0 0,0 0,0 1e-6,2e-5 1e-6,2e-5 1e-6,2e-5 0,0 0,0 -1e-6,-2e-5 0,0 0,0 0,0 0,0 0,0 0,0 0,0 0,0 0,0 0,0 0,0 0,0 0,0 0,0 0,0 0,0 0,0 0,0 0,0 0,0 0,0 0,0 0,0 0,0 0,0 0,0 0,0 0,0 0,0 0,0 0,0 0,0 0,0 0,0 0,0 0,0 0,0 0,0 0,0 0,0 0,0 0,0 -3.3e-5,-7.3e-4 -6.65e-4,-0.0101 -4.38e-4,-0.0278 2.21e-4,-0.0173 0.0015,-0.0452 0.0074,-0.0799 0,0 0,0 0,0 0.0049,-0.0737 0.01149,-0.1711 0.02154,-0.31154 l 0,0 0,0 c 0.02044,-0.28606 0.04888,-0.66556 0.09328,-1.20373 l 0,0 c 0.08954,-1.08544 0.220581,-2.53904 0.432631,-4.51269 l 0,0 c 0.421806,-3.92567 1.086499,-9.20077 2.212108,-15.721786 l 0,0 C 27.744481,80.679502 31.422121,64.806943 38.154816,48.99381 Z"
       id="path83"
       sodipodi:nodetypes="cc"
       inkscape:original-d="M 87.487602,0.03303276 C 18.13896,15.71935 22.693427,115.73363 22.693427,115.73363"
       inkscape:path-effect="#path-effect1645" />
    <path
       style="fill:#008000;fill-rule:nonzero;stroke:none;stroke-width:0.264583px;stroke-linecap:butt;stroke-linejoin:miter;stroke-opacity:1"
       d="M 71.163283,102.24581 C 81.932719,90.592288 89.031391,76.683861 92.585814,62.709092 c 0,-2e-6 0,-5e-6 0,-7e-6 4.305909,-17.070218 3.296395,-32.89722 1.707298,-43.69065 C 92.682099,8.0761483 90.621204,1.7196028 90.621204,1.7196028 c 0,0 1.127992,6.5946195 1.507344,17.4961232 0.374469,10.761148 -0.166245,26.132485 -5.278122,41.845559 -2e-6,2e-6 -2e-6,5e-6 -2e-6,7e-6 -4.154702,12.858779 -11.25277,25.404629 -21.16474,36.120178 -3.3241,3.59535 -6.747753,6.72908 -10.098665,9.44087 -7.232341,5.85126 -10.955127,8.93278 -16.906156,13.29842 l 0,0 c -2.262034,1.65893 -3.894056,2.79767 -5.292218,3.74283 l 0,0 c -0.659444,0.44578 -1.110349,0.74283 -1.481156,0.98369 l 0,0 c -0.177943,0.11558 -0.296138,0.19139 -0.392738,0.25293 l 0,0 c 0,0 0,0 0,0 -0.04621,0.0294 -0.07723,0.0491 -0.102007,0.0647 l 0,0 c -0.02077,0.0203 -0.03497,0.0224 -0.03634,0.0228 0,0 0,0 0,0 0,0 0,0 0,0 0,0 0,0 0,0 0,0 0,0 0,0 0,0 0,0 0,0 0,0 0,0 0,0 0,0 0,0 0,0 0,0 0,0 0,0 -6.9e-5,2e-5 -5.9e-5,2e-5 -5.9e-5,2e-5 0,0 -10e-6,0 5.9e-5,-2e-5 0,0 0,0 0,0 0,0 0,0 0,0 0,0 0,0 0,0 0,0 0,0 0,0 0,0 0,0 0,0 0,0 0,0 0,0 0,0 0,0 0,0 0,0 0,0 0,0 0.0014,-4.5e-4 0.01398,-0.007 0.04272,-0.004 l 0,0 c 0.02806,-0.003 0.06692,-0.007 0.120583,-0.0123 0,0 0,0 0,0 l 0,0 c 0.108969,-0.0117 0.259806,-0.0291 0.466391,-0.0562 l 0,0 c 0.420343,-0.0551 1.00273,-0.14138 1.776598,-0.28342 l 0,0 c 1.592318,-0.29229 3.769065,-0.77918 6.450816,-1.61907 l 0,0 c 5.957228,-1.8652 13.33907,-5.16209 20.046427,-10.59155 3.603476,-2.91618 7.293301,-6.2925 10.883344,-10.1755 z"
       id="path87"
       sodipodi:nodetypes="cc"
       inkscape:original-d="M 90.621204,1.7196028 C 110.4231,98.679449 31.376341,124.98779 31.376341,124.98779"
       inkscape:path-effect="#path-effect1647" />
  </g>
</svg>
