solid OpenSCAD_Model
  facet normal 0.8910070025341279 0.45398956093191 0
    outer loop
      vertex 3.888819694519043 3.086270332336426 3.5899994373321533
      vertex 3.711270332336426 3.4347314834594727 1.0009994506835938
      vertex 3.711270332336426 3.4347314834594727 3.5899994373321533
    endloop
  endfacet
  facet normal 0.8910070025341279 0.45398956093191 0
    outer loop
      vertex 3.711270332336426 3.4347314834594727 1.0009994506835938
      vertex 3.888819694519043 3.086270332336426 3.5899994373321533
      vertex 3.888819694519043 3.086270332336426 1.0009994506835938
    endloop
  endfacet
  facet normal 0.7071067811865475 0.7071067811865475 0
    outer loop
      vertex 3.711270332336426 3.4347314834594727 3.5899994373321533
      vertex 3.4347314834594727 3.711270332336426 1.0009994506835938
      vertex 3.4347314834594727 3.711270332336426 3.5899994373321533
    endloop
  endfacet
  facet normal 0.7071067811865475 0.7071067811865475 0
    outer loop
      vertex 3.4347314834594727 3.711270332336426 1.0009994506835938
      vertex 3.711270332336426 3.4347314834594727 3.5899994373321533
      vertex 3.711270332336426 3.4347314834594727 1.0009994506835938
    endloop
  endfacet
  facet normal 0.9876879952427992 0.15643664549350436 0
    outer loop
      vertex 3.9499998092651367 2.6999998092651367 3.5899994373321533
      vertex 3.888819694519043 3.086270332336426 1.0009994506835938
      vertex 3.888819694519043 3.086270332336426 3.5899994373321533
    endloop
  endfacet
  facet normal 0.9876879952427992 0.15643664549350436 0
    outer loop
      vertex 3.888819694519043 3.086270332336426 1.0009994506835938
      vertex 3.9499998092651367 2.6999998092651367 3.5899994373321533
      vertex 3.9499998092651367 2.6999998092651367 1.0009994506835938
    endloop
  endfacet
  facet normal -0.7071055619202535 0.707108000450739 0
    outer loop
      vertex 1.9652681350708008 3.711270332336426 1.0009994506835938
      vertex 1.6887283325195312 3.4347314834594727 3.5899994373321533
      vertex 1.9652681350708008 3.711270332336426 3.5899994373321533
    endloop
  endfacet
  facet normal -0.7071055619202535 0.707108000450739 0
    outer loop
      vertex 1.6887283325195312 3.4347314834594727 3.5899994373321533
      vertex 1.9652681350708008 3.711270332336426 1.0009994506835938
      vertex 1.6887283325195312 3.4347314834594727 1.0009994506835938
    endloop
  endfacet
  facet normal -0.15643626871550892 0.9876880549193502 0
    outer loop
      vertex 2.6999998092651367 3.9499998092651367 1.0009994506835938
      vertex 2.3137283325195312 3.888819694519043 3.5899994373321533
      vertex 2.6999998092651367 3.9499998092651367 3.5899994373321533
    endloop
  endfacet
  facet normal -0.15643626871550892 0.9876880549193502 0
    outer loop
      vertex 2.3137283325195312 3.888819694519043 3.5899994373321533
      vertex 2.6999998092651367 3.9499998092651367 1.0009994506835938
      vertex 2.3137283325195312 3.888819694519043 1.0009994506835938
    endloop
  endfacet
  facet normal -0.9876883720189696 0.15643426663783513 0
    outer loop
      vertex 1.4499998092651367 2.6999998092651367 1.0009994506835938
      vertex 1.511178970336914 3.086270332336426 3.5899994373321533
      vertex 1.511178970336914 3.086270332336426 1.0009994506835938
    endloop
  endfacet
  facet normal -0.9876883720189696 0.15643426663783513 0
    outer loop
      vertex 1.511178970336914 3.086270332336426 3.5899994373321533
      vertex 1.4499998092651367 2.6999998092651367 1.0009994506835938
      vertex 1.4499998092651367 2.6999998092651367 3.5899994373321533
    endloop
  endfacet
  facet normal 0.45398956093191 0.8910070025341279 0
    outer loop
      vertex 3.4347314834594727 3.711270332336426 1.0009994506835938
      vertex 3.086270332336426 3.888819694519043 3.5899994373321533
      vertex 3.4347314834594727 3.711270332336426 3.5899994373321533
    endloop
  endfacet
  facet normal 0.45398956093191 0.8910070025341279 0
    outer loop
      vertex 3.086270332336426 3.888819694519043 3.5899994373321533
      vertex 3.4347314834594727 3.711270332336426 1.0009994506835938
      vertex 3.086270332336426 3.888819694519043 1.0009994506835938
    endloop
  endfacet
  facet normal 0.15643664549350436 0.9876879952427992 0
    outer loop
      vertex 3.086270332336426 3.888819694519043 1.0009994506835938
      vertex 2.6999998092651367 3.9499998092651367 3.5899994373321533
      vertex 3.086270332336426 3.888819694519043 3.5899994373321533
    endloop
  endfacet
  facet normal 0.15643664549350436 0.9876879952427992 0
    outer loop
      vertex 2.6999998092651367 3.9499998092651367 3.5899994373321533
      vertex 3.086270332336426 3.888819694519043 1.0009994506835938
      vertex 2.6999998092651367 3.9499998092651367 1.0009994506835938
    endloop
  endfacet
  facet normal -0.7071067811865475 -0.7071067811865475 0
    outer loop
      vertex 1.9652681350708008 1.6887283325195312 1.0009994506835938
      vertex 1.6887283325195312 1.9652681350708008 3.5899994373321533
      vertex 1.6887283325195312 1.9652681350708008 1.0009994506835938
    endloop
  endfacet
  facet normal -0.7071067811865475 -0.7071067811865475 0
    outer loop
      vertex 1.6887283325195312 1.9652681350708008 3.5899994373321533
      vertex 1.9652681350708008 1.6887283325195312 1.0009994506835938
      vertex 1.9652681350708008 1.6887283325195312 3.5899994373321533
    endloop
  endfacet
  facet normal 0.15643426663783513 -0.9876883720189696 0
    outer loop
      vertex 2.6999998092651367 1.4499998092651367 1.0009994506835938
      vertex 3.086270332336426 1.511178970336914 3.5899994373321533
      vertex 2.6999998092651367 1.4499998092651367 3.5899994373321533
    endloop
  endfacet
  facet normal 0.15643426663783513 -0.9876883720189696 0
    outer loop
      vertex 3.086270332336426 1.511178970336914 3.5899994373321533
      vertex 2.6999998092651367 1.4499998092651367 1.0009994506835938
      vertex 3.086270332336426 1.511178970336914 1.0009994506835938
    endloop
  endfacet
  facet normal -0.45399054733549526 -0.8910064999370192 0
    outer loop
      vertex 1.9652681350708008 1.6887283325195312 1.0009994506835938
      vertex 2.3137283325195312 1.511178970336914 3.5899994373321533
      vertex 1.9652681350708008 1.6887283325195312 3.5899994373321533
    endloop
  endfacet
  facet normal -0.45399054733549526 -0.8910064999370192 0
    outer loop
      vertex 2.3137283325195312 1.511178970336914 3.5899994373321533
      vertex 1.9652681350708008 1.6887283325195312 1.0009994506835938
      vertex 2.3137283325195312 1.511178970336914 1.0009994506835938
    endloop
  endfacet
  facet normal 0.45398956093191 -0.8910070025341279 0
    outer loop
      vertex 3.086270332336426 1.511178970336914 1.0009994506835938
      vertex 3.4347314834594727 1.6887283325195312 3.5899994373321533
      vertex 3.086270332336426 1.511178970336914 3.5899994373321533
    endloop
  endfacet
  facet normal 0.45398956093191 -0.8910070025341279 0
    outer loop
      vertex 3.4347314834594727 1.6887283325195312 3.5899994373321533
      vertex 3.086270332336426 1.511178970336914 1.0009994506835938
      vertex 3.4347314834594727 1.6887283325195312 1.0009994506835938
    endloop
  endfacet
  facet normal -0.8910064999370192 -0.45399054733549526 0
    outer loop
      vertex 1.6887283325195312 1.9652681350708008 1.0009994506835938
      vertex 1.511178970336914 2.3137283325195312 3.5899994373321533
      vertex 1.511178970336914 2.3137283325195312 1.0009994506835938
    endloop
  endfacet
  facet normal -0.8910064999370192 -0.45399054733549526 0
    outer loop
      vertex 1.511178970336914 2.3137283325195312 3.5899994373321533
      vertex 1.6887283325195312 1.9652681350708008 1.0009994506835938
      vertex 1.6887283325195312 1.9652681350708008 3.5899994373321533
    endloop
  endfacet
  facet normal -0.1564338898652817 -0.9876884316937284 0
    outer loop
      vertex 2.3137283325195312 1.511178970336914 1.0009994506835938
      vertex 2.6999998092651367 1.4499998092651367 3.5899994373321533
      vertex 2.3137283325195312 1.511178970336914 3.5899994373321533
    endloop
  endfacet
  facet normal -0.1564338898652817 -0.9876884316937284 0
    outer loop
      vertex 2.6999998092651367 1.4499998092651367 3.5899994373321533
      vertex 2.3137283325195312 1.511178970336914 1.0009994506835938
      vertex 2.6999998092651367 1.4499998092651367 1.0009994506835938
    endloop
  endfacet
  facet normal -0.8910070025341279 0.45398956093191 0
    outer loop
      vertex 1.511178970336914 3.086270332336426 1.0009994506835938
      vertex 1.6887283325195312 3.4347314834594727 3.5899994373321533
      vertex 1.6887283325195312 3.4347314834594727 1.0009994506835938
    endloop
  endfacet
  facet normal -0.8910070025341279 0.45398956093191 0
    outer loop
      vertex 1.6887283325195312 3.4347314834594727 3.5899994373321533
      vertex 1.511178970336914 3.086270332336426 1.0009994506835938
      vertex 1.511178970336914 3.086270332336426 3.5899994373321533
    endloop
  endfacet
  facet normal 0.707108000450739 -0.7071055619202535 0
    outer loop
      vertex 3.4347314834594727 1.6887283325195312 3.5899994373321533
      vertex 3.711270332336426 1.9652681350708008 1.0009994506835938
      vertex 3.711270332336426 1.9652681350708008 3.5899994373321533
    endloop
  endfacet
  facet normal 0.707108000450739 -0.7071055619202535 0
    outer loop
      vertex 3.711270332336426 1.9652681350708008 1.0009994506835938
      vertex 3.4347314834594727 1.6887283325195312 3.5899994373321533
      vertex 3.4347314834594727 1.6887283325195312 1.0009994506835938
    endloop
  endfacet
  facet normal -0.45399054733549526 0.8910064999370192 0
    outer loop
      vertex 2.3137283325195312 3.888819694519043 1.0009994506835938
      vertex 1.9652681350708008 3.711270332336426 3.5899994373321533
      vertex 2.3137283325195312 3.888819694519043 3.5899994373321533
    endloop
  endfacet
  facet normal -0.45399054733549526 0.8910064999370192 0
    outer loop
      vertex 1.9652681350708008 3.711270332336426 3.5899994373321533
      vertex 2.3137283325195312 3.888819694519043 1.0009994506835938
      vertex 1.9652681350708008 3.711270332336426 1.0009994506835938
    endloop
  endfacet
  facet normal 0.8910064999370192 -0.45399054733549526 0
    outer loop
      vertex 3.711270332336426 1.9652681350708008 3.5899994373321533
      vertex 3.888819694519043 2.3137283325195312 1.0009994506835938
      vertex 3.888819694519043 2.3137283325195312 3.5899994373321533
    endloop
  endfacet
  facet normal 0.8910064999370192 -0.45399054733549526 0
    outer loop
      vertex 3.888819694519043 2.3137283325195312 1.0009994506835938
      vertex 3.711270332336426 1.9652681350708008 3.5899994373321533
      vertex 3.711270332336426 1.9652681350708008 1.0009994506835938
    endloop
  endfacet
  facet normal 0.9876880549193502 -0.15643626871550892 0
    outer loop
      vertex 3.888819694519043 2.3137283325195312 3.5899994373321533
      vertex 3.9499998092651367 2.6999998092651367 1.0009994506835938
      vertex 3.9499998092651367 2.6999998092651367 3.5899994373321533
    endloop
  endfacet
  facet normal 0.9876880549193502 -0.15643626871550892 0
    outer loop
      vertex 3.9499998092651367 2.6999998092651367 1.0009994506835938
      vertex 3.888819694519043 2.3137283325195312 3.5899994373321533
      vertex 3.888819694519043 2.3137283325195312 1.0009994506835938
    endloop
  endfacet
  facet normal -0.9876884316937284 -0.1564338898652817 0
    outer loop
      vertex 1.511178970336914 2.3137283325195312 1.0009994506835938
      vertex 1.4499998092651367 2.6999998092651367 3.5899994373321533
      vertex 1.4499998092651367 2.6999998092651367 1.0009994506835938
    endloop
  endfacet
  facet normal -0.9876884316937284 -0.1564338898652817 0
    outer loop
      vertex 1.4499998092651367 2.6999998092651367 3.5899994373321533
      vertex 1.511178970336914 2.3137283325195312 1.0009994506835938
      vertex 1.511178970336914 2.3137283325195312 3.5899994373321533
    endloop
  endfacet
  facet normal 0 0 1
    outer loop
      vertex 3.888819694519043 3.086270332336426 3.5899994373321533
      vertex 3.888819694519043 2.3137283325195312 3.5899994373321533
      vertex 3.9499998092651367 2.6999998092651367 3.5899994373321533
    endloop
  endfacet
  facet normal 0 0 1
    outer loop
      vertex 3.711270332336426 3.4347314834594727 3.5899994373321533
      vertex 3.888819694519043 2.3137283325195312 3.5899994373321533
      vertex 3.888819694519043 3.086270332336426 3.5899994373321533
    endloop
  endfacet
  facet normal 0 0 1
    outer loop
      vertex 3.711270332336426 3.4347314834594727 3.5899994373321533
      vertex 3.711270332336426 1.9652681350708008 3.5899994373321533
      vertex 3.888819694519043 2.3137283325195312 3.5899994373321533
    endloop
  endfacet
  facet normal 0 0 1
    outer loop
      vertex 3.4347314834594727 3.711270332336426 3.5899994373321533
      vertex 3.711270332336426 1.9652681350708008 3.5899994373321533
      vertex 3.711270332336426 3.4347314834594727 3.5899994373321533
    endloop
  endfacet
  facet normal 0 0 1
    outer loop
      vertex 3.4347314834594727 3.711270332336426 3.5899994373321533
      vertex 3.4347314834594727 1.6887283325195312 3.5899994373321533
      vertex 3.711270332336426 1.9652681350708008 3.5899994373321533
    endloop
  endfacet
  facet normal 0 0 1
    outer loop
      vertex 3.086270332336426 3.888819694519043 3.5899994373321533
      vertex 3.4347314834594727 1.6887283325195312 3.5899994373321533
      vertex 3.4347314834594727 3.711270332336426 3.5899994373321533
    endloop
  endfacet
  facet normal 0 0 1
    outer loop
      vertex 3.086270332336426 3.888819694519043 3.5899994373321533
      vertex 3.086270332336426 1.511178970336914 3.5899994373321533
      vertex 3.4347314834594727 1.6887283325195312 3.5899994373321533
    endloop
  endfacet
  facet normal 0 0 1
    outer loop
      vertex 2.6999998092651367 3.9499998092651367 3.5899994373321533
      vertex 3.086270332336426 1.511178970336914 3.5899994373321533
      vertex 3.086270332336426 3.888819694519043 3.5899994373321533
    endloop
  endfacet
  facet normal 0 0 1
    outer loop
      vertex 2.6999998092651367 3.9499998092651367 3.5899994373321533
      vertex 2.6999998092651367 1.4499998092651367 3.5899994373321533
      vertex 3.086270332336426 1.511178970336914 3.5899994373321533
    endloop
  endfacet
  facet normal 0 0 1
    outer loop
      vertex 2.3137283325195312 3.888819694519043 3.5899994373321533
      vertex 2.6999998092651367 1.4499998092651367 3.5899994373321533
      vertex 2.6999998092651367 3.9499998092651367 3.5899994373321533
    endloop
  endfacet
  facet normal 0 0 1
    outer loop
      vertex 2.3137283325195312 3.888819694519043 3.5899994373321533
      vertex 2.3137283325195312 1.511178970336914 3.5899994373321533
      vertex 2.6999998092651367 1.4499998092651367 3.5899994373321533
    endloop
  endfacet
  facet normal 0 0 1
    outer loop
      vertex 1.9652681350708008 3.711270332336426 3.5899994373321533
      vertex 2.3137283325195312 1.511178970336914 3.5899994373321533
      vertex 2.3137283325195312 3.888819694519043 3.5899994373321533
    endloop
  endfacet
  facet normal 0 0 1
    outer loop
      vertex 1.9652681350708008 3.711270332336426 3.5899994373321533
      vertex 1.9652681350708008 1.6887283325195312 3.5899994373321533
      vertex 2.3137283325195312 1.511178970336914 3.5899994373321533
    endloop
  endfacet
  facet normal 0 0 1
    outer loop
      vertex 1.6887283325195312 3.4347314834594727 3.5899994373321533
      vertex 1.9652681350708008 1.6887283325195312 3.5899994373321533
      vertex 1.9652681350708008 3.711270332336426 3.5899994373321533
    endloop
  endfacet
  facet normal 0 0 1
    outer loop
      vertex 1.6887283325195312 3.4347314834594727 3.5899994373321533
      vertex 1.6887283325195312 1.9652681350708008 3.5899994373321533
      vertex 1.9652681350708008 1.6887283325195312 3.5899994373321533
    endloop
  endfacet
  facet normal 0 0 1
    outer loop
      vertex 1.511178970336914 3.086270332336426 3.5899994373321533
      vertex 1.6887283325195312 1.9652681350708008 3.5899994373321533
      vertex 1.6887283325195312 3.4347314834594727 3.5899994373321533
    endloop
  endfacet
  facet normal 0 0 1
    outer loop
      vertex 1.511178970336914 3.086270332336426 3.5899994373321533
      vertex 1.511178970336914 2.3137283325195312 3.5899994373321533
      vertex 1.6887283325195312 1.9652681350708008 3.5899994373321533
    endloop
  endfacet
  facet normal 0 0 1
    outer loop
      vertex 1.511178970336914 2.3137283325195312 3.5899994373321533
      vertex 1.511178970336914 3.086270332336426 3.5899994373321533
      vertex 1.4499998092651367 2.6999998092651367 3.5899994373321533
    endloop
  endfacet
  facet normal 0.8910030192887114 0.45399737842679244 0
    outer loop
      vertex 57.82482147216797 39.85027313232422 3.5899994373321533
      vertex 57.64727020263672 40.19873046875 1.0009994506835938
      vertex 57.64727020263672 40.19873046875 3.5899994373321533
    endloop
  endfacet
  facet normal 0.8910030192887114 0.45399737842679244 0
    outer loop
      vertex 57.64727020263672 40.19873046875 1.0009994506835938
      vertex 57.82482147216797 39.85027313232422 3.5899994373321533
      vertex 57.82482147216797 39.85027313232422 1.0009994506835938
    endloop
  endfacet
  facet normal 0.15642788357232418 -0.9876893829747709 0
    outer loop
      vertex 56.63600158691406 38.2140007019043 1.0009994506835938
      vertex 57.02227020263672 38.275177001953125 3.5899994373321533
      vertex 56.63600158691406 38.2140007019043 3.5899994373321533
    endloop
  endfacet
  facet normal 0.15642788357232418 -0.9876893829747709 0
    outer loop
      vertex 57.02227020263672 38.275177001953125 3.5899994373321533
      vertex 56.63600158691406 38.2140007019043 1.0009994506835938
      vertex 57.02227020263672 38.275177001953125 1.0009994506835938
    endloop
  endfacet
  facet normal 0.9876881145954699 0.1564358919393056 0
    outer loop
      vertex 57.88600158691406 39.4640007019043 3.5899994373321533
      vertex 57.82482147216797 39.85027313232422 1.0009994506835938
      vertex 57.82482147216797 39.85027313232422 3.5899994373321533
    endloop
  endfacet
  facet normal 0.9876881145954699 0.1564358919393056 0
    outer loop
      vertex 57.82482147216797 39.85027313232422 1.0009994506835938
      vertex 57.88600158691406 39.4640007019043 3.5899994373321533
      vertex 57.88600158691406 39.4640007019043 1.0009994506835938
    endloop
  endfacet
  facet normal -0.9876896216531627 0.15642637654383088 0
    outer loop
      vertex 55.38600158691406 39.4640007019043 1.0009994506835938
      vertex 55.44717788696289 39.85027313232422 3.5899994373321533
      vertex 55.44717788696289 39.85027313232422 1.0009994506835938
    endloop
  endfacet
  facet normal -0.9876896216531627 0.15642637654383088 0
    outer loop
      vertex 55.44717788696289 39.85027313232422 3.5899994373321533
      vertex 55.38600158691406 39.4640007019043 1.0009994506835938
      vertex 55.38600158691406 39.4640007019043 3.5899994373321533
    endloop
  endfacet
  facet normal -0.1564358919393056 0.9876881145954699 0
    outer loop
      vertex 56.63600158691406 40.7140007019043 1.0009994506835938
      vertex 56.24972915649414 40.6528205871582 3.5899994373321533
      vertex 56.63600158691406 40.7140007019043 3.5899994373321533
    endloop
  endfacet
  facet normal -0.1564358919393056 0.9876881145954699 0
    outer loop
      vertex 56.24972915649414 40.6528205871582 3.5899994373321533
      vertex 56.63600158691406 40.7140007019043 1.0009994506835938
      vertex 56.24972915649414 40.6528205871582 1.0009994506835938
    endloop
  endfacet
  facet normal 0.9876881145954699 -0.1564358919393056 0
    outer loop
      vertex 57.82482147216797 39.077728271484375 3.5899994373321533
      vertex 57.88600158691406 39.4640007019043 1.0009994506835938
      vertex 57.88600158691406 39.4640007019043 3.5899994373321533
    endloop
  endfacet
  facet normal 0.9876881145954699 -0.1564358919393056 0
    outer loop
      vertex 57.88600158691406 39.4640007019043 1.0009994506835938
      vertex 57.82482147216797 39.077728271484375 3.5899994373321533
      vertex 57.82482147216797 39.077728271484375 1.0009994506835938
    endloop
  endfacet
  facet normal -0.7071116582054711 0.7071019041339864 0
    outer loop
      vertex 55.62472915649414 40.19873046875 1.0009994506835938
      vertex 55.901268005371094 40.47527313232422 3.5899994373321533
      vertex 55.901268005371094 40.47527313232422 1.0009994506835938
    endloop
  endfacet
  facet normal -0.7071116582054711 0.7071019041339864 0
    outer loop
      vertex 55.901268005371094 40.47527313232422 3.5899994373321533
      vertex 55.62472915649414 40.19873046875 1.0009994506835938
      vertex 55.62472915649414 40.19873046875 3.5899994373321533
    endloop
  endfacet
  facet normal 0.7071067811865475 -0.7071067811865475 0
    outer loop
      vertex 57.370731353759766 38.452728271484375 3.5899994373321533
      vertex 57.64727020263672 38.72926712036133 1.0009994506835938
      vertex 57.64727020263672 38.72926712036133 3.5899994373321533
    endloop
  endfacet
  facet normal 0.7071067811865475 -0.7071067811865475 0
    outer loop
      vertex 57.64727020263672 38.72926712036133 1.0009994506835938
      vertex 57.370731353759766 38.452728271484375 3.5899994373321533
      vertex 57.370731353759766 38.452728271484375 1.0009994506835938
    endloop
  endfacet
  facet normal 0.8910050297266431 -0.4539934327738938 0
    outer loop
      vertex 57.64727020263672 38.72926712036133 3.5899994373321533
      vertex 57.82482147216797 39.077728271484375 1.0009994506835938
      vertex 57.82482147216797 39.077728271484375 3.5899994373321533
    endloop
  endfacet
  facet normal 0.8910050297266431 -0.4539934327738938 0
    outer loop
      vertex 57.82482147216797 39.077728271484375 1.0009994506835938
      vertex 57.64727020263672 38.72926712036133 3.5899994373321533
      vertex 57.64727020263672 38.72926712036133 1.0009994506835938
    endloop
  endfacet
  facet normal -0.45398568906420794 0.8910089753335239 0
    outer loop
      vertex 56.24972915649414 40.6528205871582 1.0009994506835938
      vertex 55.901268005371094 40.47527313232422 3.5899994373321533
      vertex 56.24972915649414 40.6528205871582 3.5899994373321533
    endloop
  endfacet
  facet normal -0.45398568906420794 0.8910089753335239 0
    outer loop
      vertex 55.901268005371094 40.47527313232422 3.5899994373321533
      vertex 56.24972915649414 40.6528205871582 1.0009994506835938
      vertex 55.901268005371094 40.47527313232422 1.0009994506835938
    endloop
  endfacet
  facet normal -0.9876896216531627 -0.15642637654383088 0
    outer loop
      vertex 55.44717788696289 39.077728271484375 1.0009994506835938
      vertex 55.38600158691406 39.4640007019043 3.5899994373321533
      vertex 55.38600158691406 39.4640007019043 1.0009994506835938
    endloop
  endfacet
  facet normal -0.9876896216531627 -0.15642637654383088 0
    outer loop
      vertex 55.38600158691406 39.4640007019043 3.5899994373321533
      vertex 55.44717788696289 39.077728271484375 1.0009994506835938
      vertex 55.44717788696289 39.077728271484375 3.5899994373321533
    endloop
  endfacet
  facet normal -0.7071067811865475 -0.7071067811865475 0
    outer loop
      vertex 55.901268005371094 38.452728271484375 1.0009994506835938
      vertex 55.62472915649414 38.72926712036133 3.5899994373321533
      vertex 55.62472915649414 38.72926712036133 1.0009994506835938
    endloop
  endfacet
  facet normal -0.7071067811865475 -0.7071067811865475 0
    outer loop
      vertex 55.62472915649414 38.72926712036133 3.5899994373321533
      vertex 55.901268005371094 38.452728271484375 1.0009994506835938
      vertex 55.901268005371094 38.452728271484375 3.5899994373321533
    endloop
  endfacet
  facet normal 0.4539934327738938 -0.8910050297266431 0
    outer loop
      vertex 57.02227020263672 38.275177001953125 1.0009994506835938
      vertex 57.370731353759766 38.452728271484375 3.5899994373321533
      vertex 57.02227020263672 38.275177001953125 3.5899994373321533
    endloop
  endfacet
  facet normal 0.4539934327738938 -0.8910050297266431 0
    outer loop
      vertex 57.370731353759766 38.452728271484375 3.5899994373321533
      vertex 57.02227020263672 38.275177001953125 1.0009994506835938
      vertex 57.370731353759766 38.452728271484375 1.0009994506835938
    endloop
  endfacet
  facet normal 0.45398568906420794 0.8910089753335239 0
    outer loop
      vertex 57.370731353759766 40.47527313232422 1.0009994506835938
      vertex 57.02227020263672 40.6528205871582 3.5899994373321533
      vertex 57.370731353759766 40.47527313232422 3.5899994373321533
    endloop
  endfacet
  facet normal 0.45398568906420794 0.8910089753335239 0
    outer loop
      vertex 57.02227020263672 40.6528205871582 3.5899994373321533
      vertex 57.370731353759766 40.47527313232422 1.0009994506835938
      vertex 57.02227020263672 40.6528205871582 1.0009994506835938
    endloop
  endfacet
  facet normal 0.15643739905487192 0.9876878758884038 0
    outer loop
      vertex 57.02227020263672 40.6528205871582 1.0009994506835938
      vertex 56.63600158691406 40.7140007019043 3.5899994373321533
      vertex 57.02227020263672 40.6528205871582 3.5899994373321533
    endloop
  endfacet
  facet normal 0.15643739905487192 0.9876878758884038 0
    outer loop
      vertex 56.63600158691406 40.7140007019043 3.5899994373321533
      vertex 57.02227020263672 40.6528205871582 1.0009994506835938
      vertex 56.63600158691406 40.7140007019043 1.0009994506835938
    endloop
  endfacet
  facet normal -0.8910050297266431 -0.4539934327738938 0
    outer loop
      vertex 55.62472915649414 38.72926712036133 1.0009994506835938
      vertex 55.44717788696289 39.077728271484375 3.5899994373321533
      vertex 55.44717788696289 39.077728271484375 1.0009994506835938
    endloop
  endfacet
  facet normal -0.8910050297266431 -0.4539934327738938 0
    outer loop
      vertex 55.44717788696289 39.077728271484375 3.5899994373321533
      vertex 55.62472915649414 38.72926712036133 1.0009994506835938
      vertex 55.62472915649414 38.72926712036133 3.5899994373321533
    endloop
  endfacet
  facet normal -0.8910030192887114 0.45399737842679244 0
    outer loop
      vertex 55.44717788696289 39.85027313232422 1.0009994506835938
      vertex 55.62472915649414 40.19873046875 3.5899994373321533
      vertex 55.62472915649414 40.19873046875 1.0009994506835938
    endloop
  endfacet
  facet normal -0.8910030192887114 0.45399737842679244 0
    outer loop
      vertex 55.62472915649414 40.19873046875 3.5899994373321533
      vertex 55.44717788696289 39.85027313232422 1.0009994506835938
      vertex 55.44717788696289 39.85027313232422 3.5899994373321533
    endloop
  endfacet
  facet normal 0.7071116582054711 0.7071019041339864 0
    outer loop
      vertex 57.64727020263672 40.19873046875 3.5899994373321533
      vertex 57.370731353759766 40.47527313232422 1.0009994506835938
      vertex 57.370731353759766 40.47527313232422 3.5899994373321533
    endloop
  endfacet
  facet normal 0.7071116582054711 0.7071019041339864 0
    outer loop
      vertex 57.370731353759766 40.47527313232422 1.0009994506835938
      vertex 57.64727020263672 40.19873046875 3.5899994373321533
      vertex 57.64727020263672 40.19873046875 1.0009994506835938
    endloop
  endfacet
  facet normal -0.4539934327738938 -0.8910050297266431 0
    outer loop
      vertex 55.901268005371094 38.452728271484375 1.0009994506835938
      vertex 56.24972915649414 38.275177001953125 3.5899994373321533
      vertex 55.901268005371094 38.452728271484375 3.5899994373321533
    endloop
  endfacet
  facet normal -0.4539934327738938 -0.8910050297266431 0
    outer loop
      vertex 56.24972915649414 38.275177001953125 3.5899994373321533
      vertex 55.901268005371094 38.452728271484375 1.0009994506835938
      vertex 56.24972915649414 38.275177001953125 1.0009994506835938
    endloop
  endfacet
  facet normal -0.15642637654383088 -0.9876896216531627 0
    outer loop
      vertex 56.24972915649414 38.275177001953125 1.0009994506835938
      vertex 56.63600158691406 38.2140007019043 3.5899994373321533
      vertex 56.24972915649414 38.275177001953125 3.5899994373321533
    endloop
  endfacet
  facet normal -0.15642637654383088 -0.9876896216531627 0
    outer loop
      vertex 56.63600158691406 38.2140007019043 3.5899994373321533
      vertex 56.24972915649414 38.275177001953125 1.0009994506835938
      vertex 56.63600158691406 38.2140007019043 1.0009994506835938
    endloop
  endfacet
  facet normal 0 0 1
    outer loop
      vertex 57.82482147216797 39.85027313232422 3.5899994373321533
      vertex 57.82482147216797 39.077728271484375 3.5899994373321533
      vertex 57.88600158691406 39.4640007019043 3.5899994373321533
    endloop
  endfacet
  facet normal 0 0 1
    outer loop
      vertex 57.64727020263672 40.19873046875 3.5899994373321533
      vertex 57.82482147216797 39.077728271484375 3.5899994373321533
      vertex 57.82482147216797 39.85027313232422 3.5899994373321533
    endloop
  endfacet
  facet normal 0 0 1
    outer loop
      vertex 57.64727020263672 40.19873046875 3.5899994373321533
      vertex 57.64727020263672 38.72926712036133 3.5899994373321533
      vertex 57.82482147216797 39.077728271484375 3.5899994373321533
    endloop
  endfacet
  facet normal 0 0 1
    outer loop
      vertex 57.370731353759766 40.47527313232422 3.5899994373321533
      vertex 57.64727020263672 38.72926712036133 3.5899994373321533
      vertex 57.64727020263672 40.19873046875 3.5899994373321533
    endloop
  endfacet
  facet normal 0 0 1
    outer loop
      vertex 57.370731353759766 40.47527313232422 3.5899994373321533
      vertex 57.370731353759766 38.452728271484375 3.5899994373321533
      vertex 57.64727020263672 38.72926712036133 3.5899994373321533
    endloop
  endfacet
  facet normal 0 0 1
    outer loop
      vertex 57.02227020263672 40.6528205871582 3.5899994373321533
      vertex 57.370731353759766 38.452728271484375 3.5899994373321533
      vertex 57.370731353759766 40.47527313232422 3.5899994373321533
    endloop
  endfacet
  facet normal 0 0 1
    outer loop
      vertex 57.02227020263672 40.6528205871582 3.5899994373321533
      vertex 57.02227020263672 38.275177001953125 3.5899994373321533
      vertex 57.370731353759766 38.452728271484375 3.5899994373321533
    endloop
  endfacet
  facet normal 0 0 1
    outer loop
      vertex 56.63600158691406 40.7140007019043 3.5899994373321533
      vertex 57.02227020263672 38.275177001953125 3.5899994373321533
      vertex 57.02227020263672 40.6528205871582 3.5899994373321533
    endloop
  endfacet
  facet normal 0 0 1
    outer loop
      vertex 56.63600158691406 40.7140007019043 3.5899994373321533
      vertex 56.63600158691406 38.2140007019043 3.5899994373321533
      vertex 57.02227020263672 38.275177001953125 3.5899994373321533
    endloop
  endfacet
  facet normal 0 0 1
    outer loop
      vertex 56.24972915649414 40.6528205871582 3.5899994373321533
      vertex 56.63600158691406 38.2140007019043 3.5899994373321533
      vertex 56.63600158691406 40.7140007019043 3.5899994373321533
    endloop
  endfacet
  facet normal 0 0 1
    outer loop
      vertex 56.24972915649414 40.6528205871582 3.5899994373321533
      vertex 56.24972915649414 38.275177001953125 3.5899994373321533
      vertex 56.63600158691406 38.2140007019043 3.5899994373321533
    endloop
  endfacet
  facet normal 0 0 1
    outer loop
      vertex 55.901268005371094 40.47527313232422 3.5899994373321533
      vertex 56.24972915649414 38.275177001953125 3.5899994373321533
      vertex 56.24972915649414 40.6528205871582 3.5899994373321533
    endloop
  endfacet
  facet normal 0 0 1
    outer loop
      vertex 55.901268005371094 40.47527313232422 3.5899994373321533
      vertex 55.901268005371094 38.452728271484375 3.5899994373321533
      vertex 56.24972915649414 38.275177001953125 3.5899994373321533
    endloop
  endfacet
  facet normal 0 0 1
    outer loop
      vertex 55.62472915649414 40.19873046875 3.5899994373321533
      vertex 55.901268005371094 38.452728271484375 3.5899994373321533
      vertex 55.901268005371094 40.47527313232422 3.5899994373321533
    endloop
  endfacet
  facet normal 0 0 1
    outer loop
      vertex 55.62472915649414 40.19873046875 3.5899994373321533
      vertex 55.62472915649414 38.72926712036133 3.5899994373321533
      vertex 55.901268005371094 38.452728271484375 3.5899994373321533
    endloop
  endfacet
  facet normal 0 0 1
    outer loop
      vertex 55.44717788696289 39.85027313232422 3.5899994373321533
      vertex 55.62472915649414 38.72926712036133 3.5899994373321533
      vertex 55.62472915649414 40.19873046875 3.5899994373321533
    endloop
  endfacet
  facet normal 0 0 1
    outer loop
      vertex 55.44717788696289 39.85027313232422 3.5899994373321533
      vertex 55.44717788696289 39.077728271484375 3.5899994373321533
      vertex 55.62472915649414 38.72926712036133 3.5899994373321533
    endloop
  endfacet
  facet normal 0 0 1
    outer loop
      vertex 55.44717788696289 39.077728271484375 3.5899994373321533
      vertex 55.44717788696289 39.85027313232422 3.5899994373321533
      vertex 55.38600158691406 39.4640007019043 3.5899994373321533
    endloop
  endfacet
  facet normal 1 0 0
    outer loop
      vertex 61.33599853515625 -2 2.59999942779541
      vertex 61.33599853515625 44.16400146484375 0
      vertex 61.33599853515625 44.16400146484375 2.59999942779541
    endloop
  endfacet
  facet normal 1 0 0
    outer loop
      vertex 61.33599853515625 44.16400146484375 0
      vertex 61.33599853515625 -2 2.59999942779541
      vertex 61.33599853515625 -2 0
    endloop
  endfacet
  facet normal 0 0 1
    outer loop
      vertex 61.33599853515625 44.16400146484375 2.59999942779541
      vertex 59.43600082397461 42.263999938964844 2.59999942779541
      vertex 61.33599853515625 -2 2.59999942779541
    endloop
  endfacet
  facet normal 0 0 1
    outer loop
      vertex 61.33599853515625 44.16400146484375 2.59999942779541
      vertex -0.10000038146972656 42.263999938964844 2.59999942779541
      vertex 59.43600082397461 42.263999938964844 2.59999942779541
    endloop
  endfacet
  facet normal 0 0 1
    outer loop
      vertex -0.10000038146972656 42.263999938964844 2.59999942779541
      vertex -2 44.16400146484375 2.59999942779541
      vertex -0.10000038146972656 -0.10000038146972656 2.59999942779541
    endloop
  endfacet
  facet normal 0 0 1
    outer loop
      vertex -2 44.16400146484375 2.59999942779541
      vertex -0.10000038146972656 42.263999938964844 2.59999942779541
      vertex 61.33599853515625 44.16400146484375 2.59999942779541
    endloop
  endfacet
  facet normal 0 0 1
    outer loop
      vertex 59.43600082397461 -0.10000038146972656 2.59999942779541
      vertex 61.33599853515625 -2 2.59999942779541
      vertex 59.43600082397461 42.263999938964844 2.59999942779541
    endloop
  endfacet
  facet normal 0 0 1
    outer loop
      vertex -0.10000038146972656 -0.10000038146972656 2.59999942779541
      vertex 61.33599853515625 -2 2.59999942779541
      vertex 59.43600082397461 -0.10000038146972656 2.59999942779541
    endloop
  endfacet
  facet normal 0 0 1
    outer loop
      vertex -0.10000038146972656 -0.10000038146972656 2.59999942779541
      vertex -2 -2 2.59999942779541
      vertex 61.33599853515625 -2 2.59999942779541
    endloop
  endfacet
  facet normal 0 0 1
    outer loop
      vertex -2 -2 2.59999942779541
      vertex -0.10000038146972656 -0.10000038146972656 2.59999942779541
      vertex -2 44.16400146484375 2.59999942779541
    endloop
  endfacet
  facet normal 0 0 -1
    outer loop
      vertex 61.33599853515625 -2 0
      vertex 53.38600158691406 5.949999809265137 0
      vertex 61.33599853515625 44.16400146484375 0
    endloop
  endfacet
  facet normal 0 0 -1
    outer loop
      vertex 61.33599853515625 -2 0
      vertex 5.949999809265137 5.949999809265137 0
      vertex 53.38600158691406 5.949999809265137 0
    endloop
  endfacet
  facet normal 0 0 -1
    outer loop
      vertex 5.949999809265137 5.949999809265137 0
      vertex -2 -2 0
      vertex 5.949999809265137 36.2140007019043 0
    endloop
  endfacet
  facet normal 0 0 -1
    outer loop
      vertex -2 -2 0
      vertex 5.949999809265137 5.949999809265137 0
      vertex 61.33599853515625 -2 0
    endloop
  endfacet
  facet normal 0 0 -1
    outer loop
      vertex 53.38600158691406 36.2140007019043 0
      vertex 61.33599853515625 44.16400146484375 0
      vertex 53.38600158691406 5.949999809265137 0
    endloop
  endfacet
  facet normal 0 0 -1
    outer loop
      vertex 5.949999809265137 36.2140007019043 0
      vertex 61.33599853515625 44.16400146484375 0
      vertex 53.38600158691406 36.2140007019043 0
    endloop
  endfacet
  facet normal 0 0 -1
    outer loop
      vertex 5.949999809265137 36.2140007019043 0
      vertex -2 44.16400146484375 0
      vertex 61.33599853515625 44.16400146484375 0
    endloop
  endfacet
  facet normal 0 0 -1
    outer loop
      vertex -2 44.16400146484375 0
      vertex 5.949999809265137 36.2140007019043 0
      vertex -2 -2 0
    endloop
  endfacet
  facet normal -1 0 0
    outer loop
      vertex -2 -2 0
      vertex -2 44.16400146484375 2.59999942779541
      vertex -2 44.16400146484375 0
    endloop
  endfacet
  facet normal -1 0 0
    outer loop
      vertex -2 44.16400146484375 2.59999942779541
      vertex -2 -2 0
      vertex -2 -2 2.59999942779541
    endloop
  endfacet
  facet normal 0 1 0
    outer loop
      vertex 61.33599853515625 44.16400146484375 0
      vertex -2 44.16400146484375 2.59999942779541
      vertex 61.33599853515625 44.16400146484375 2.59999942779541
    endloop
  endfacet
  facet normal 0 1 0
    outer loop
      vertex -2 44.16400146484375 2.59999942779541
      vertex 61.33599853515625 44.16400146484375 0
      vertex -2 44.16400146484375 0
    endloop
  endfacet
  facet normal 0 -1 0
    outer loop
      vertex -2 -2 0
      vertex 61.33599853515625 -2 2.59999942779541
      vertex -2 -2 2.59999942779541
    endloop
  endfacet
  facet normal 0 -1 0
    outer loop
      vertex 61.33599853515625 -2 2.59999942779541
      vertex -2 -2 0
      vertex 61.33599853515625 -2 0
    endloop
  endfacet
  facet normal -1 0 0
    outer loop
      vertex 59.43600082397461 -0.10000038146972656 1.0009994506835938
      vertex 59.43600082397461 42.263999938964844 2.59999942779541
      vertex 59.43600082397461 42.263999938964844 1.0009994506835938
    endloop
  endfacet
  facet normal -1 0 0
    outer loop
      vertex 59.43600082397461 42.263999938964844 2.59999942779541
      vertex 59.43600082397461 -0.10000038146972656 1.0009994506835938
      vertex 59.43600082397461 -0.10000038146972656 2.59999942779541
    endloop
  endfacet
  facet normal 0 0 1
    outer loop
      vertex 57.82482147216797 39.077728271484375 1.0009994506835938
      vertex 59.43600082397461 42.263999938964844 1.0009994506835938
      vertex 57.88600158691406 39.4640007019043 1.0009994506835938
    endloop
  endfacet
  facet normal 0 0 1
    outer loop
      vertex 59.43600082397461 42.263999938964844 1.0009994506835938
      vertex 57.82482147216797 39.85027313232422 1.0009994506835938
      vertex 57.88600158691406 39.4640007019043 1.0009994506835938
    endloop
  endfacet
  facet normal 0 0 1
    outer loop
      vertex 59.43600082397461 42.263999938964844 1.0009994506835938
      vertex 57.64727020263672 40.19873046875 1.0009994506835938
      vertex 57.82482147216797 39.85027313232422 1.0009994506835938
    endloop
  endfacet
  facet normal 0 0 1
    outer loop
      vertex 59.43600082397461 42.263999938964844 1.0009994506835938
      vertex 57.370731353759766 40.47527313232422 1.0009994506835938
      vertex 57.64727020263672 40.19873046875 1.0009994506835938
    endloop
  endfacet
  facet normal 0 0 1
    outer loop
      vertex 59.43600082397461 42.263999938964844 1.0009994506835938
      vertex 57.02227020263672 40.6528205871582 1.0009994506835938
      vertex 57.370731353759766 40.47527313232422 1.0009994506835938
    endloop
  endfacet
  facet normal 0 0 1
    outer loop
      vertex 59.43600082397461 42.263999938964844 1.0009994506835938
      vertex 56.63600158691406 40.7140007019043 1.0009994506835938
      vertex 57.02227020263672 40.6528205871582 1.0009994506835938
    endloop
  endfacet
  facet normal 0 0 1
    outer loop
      vertex 59.43600082397461 42.263999938964844 1.0009994506835938
      vertex 56.24972915649414 40.6528205871582 1.0009994506835938
      vertex 56.63600158691406 40.7140007019043 1.0009994506835938
    endloop
  endfacet
  facet normal 0 0 1
    outer loop
      vertex 55.44717788696289 39.85027313232422 1.0009994506835938
      vertex 53.38600158691406 36.2140007019043 1.0009994506835938
      vertex 55.38600158691406 39.4640007019043 1.0009994506835938
    endloop
  endfacet
  facet normal 0 0 1
    outer loop
      vertex 5.949999809265137 36.2140007019043 1.0009994506835938
      vertex 55.44717788696289 39.85027313232422 1.0009994506835938
      vertex 55.62472915649414 40.19873046875 1.0009994506835938
    endloop
  endfacet
  facet normal 0 0 1
    outer loop
      vertex 55.44717788696289 39.85027313232422 1.0009994506835938
      vertex 5.949999809265137 36.2140007019043 1.0009994506835938
      vertex 53.38600158691406 36.2140007019043 1.0009994506835938
    endloop
  endfacet
  facet normal 0 0 1
    outer loop
      vertex -0.10000038146972656 42.263999938964844 1.0009994506835938
      vertex 55.62472915649414 40.19873046875 1.0009994506835938
      vertex 55.901268005371094 40.47527313232422 1.0009994506835938
    endloop
  endfacet
  facet normal 0 0 1
    outer loop
      vertex -0.10000038146972656 42.263999938964844 1.0009994506835938
      vertex 55.901268005371094 40.47527313232422 1.0009994506835938
      vertex 56.24972915649414 40.6528205871582 1.0009994506835938
    endloop
  endfacet
  facet normal 0 0 1
    outer loop
      vertex -0.10000038146972656 42.263999938964844 1.0009994506835938
      vertex 56.24972915649414 40.6528205871582 1.0009994506835938
      vertex 59.43600082397461 42.263999938964844 1.0009994506835938
    endloop
  endfacet
  facet normal 0 0 1
    outer loop
      vertex 2.3137283325195312 3.888819694519043 1.0009994506835938
      vertex 5.949999809265137 5.949999809265137 1.0009994506835938
      vertex 5.949999809265137 36.2140007019043 1.0009994506835938
    endloop
  endfacet
  facet normal 0 0 1
    outer loop
      vertex 5.949999809265137 5.949999809265137 1.0009994506835938
      vertex 3.888819694519043 3.086270332336426 1.0009994506835938
      vertex 3.9499998092651367 2.6999998092651367 1.0009994506835938
    endloop
  endfacet
  facet normal 0 0 1
    outer loop
      vertex 5.949999809265137 5.949999809265137 1.0009994506835938
      vertex 3.711270332336426 3.4347314834594727 1.0009994506835938
      vertex 3.888819694519043 3.086270332336426 1.0009994506835938
    endloop
  endfacet
  facet normal 0 0 1
    outer loop
      vertex 5.949999809265137 5.949999809265137 1.0009994506835938
      vertex 3.4347314834594727 3.711270332336426 1.0009994506835938
      vertex 3.711270332336426 3.4347314834594727 1.0009994506835938
    endloop
  endfacet
  facet normal 0 0 1
    outer loop
      vertex 5.949999809265137 5.949999809265137 1.0009994506835938
      vertex 3.086270332336426 3.888819694519043 1.0009994506835938
      vertex 3.4347314834594727 3.711270332336426 1.0009994506835938
    endloop
  endfacet
  facet normal 0 0 1
    outer loop
      vertex 5.949999809265137 5.949999809265137 1.0009994506835938
      vertex 2.6999998092651367 3.9499998092651367 1.0009994506835938
      vertex 3.086270332336426 3.888819694519043 1.0009994506835938
    endloop
  endfacet
  facet normal 0 0 1
    outer loop
      vertex 5.949999809265137 5.949999809265137 1.0009994506835938
      vertex 2.3137283325195312 3.888819694519043 1.0009994506835938
      vertex 2.6999998092651367 3.9499998092651367 1.0009994506835938
    endloop
  endfacet
  facet normal 0 0 1
    outer loop
      vertex 5.949999809265137 36.2140007019043 1.0009994506835938
      vertex 1.9652681350708008 3.711270332336426 1.0009994506835938
      vertex 2.3137283325195312 3.888819694519043 1.0009994506835938
    endloop
  endfacet
  facet normal 0 0 1
    outer loop
      vertex -0.10000038146972656 42.263999938964844 1.0009994506835938
      vertex 1.9652681350708008 3.711270332336426 1.0009994506835938
      vertex 5.949999809265137 36.2140007019043 1.0009994506835938
    endloop
  endfacet
  facet normal 0 0 1
    outer loop
      vertex 1.9652681350708008 3.711270332336426 1.0009994506835938
      vertex -0.10000038146972656 42.263999938964844 1.0009994506835938
      vertex 1.6887283325195312 3.4347314834594727 1.0009994506835938
    endloop
  endfacet
  facet normal 0 0 1
    outer loop
      vertex 1.6887283325195312 3.4347314834594727 1.0009994506835938
      vertex -0.10000038146972656 42.263999938964844 1.0009994506835938
      vertex 1.511178970336914 3.086270332336426 1.0009994506835938
    endloop
  endfacet
  facet normal 0 0 1
    outer loop
      vertex -0.10000038146972656 -0.10000038146972656 1.0009994506835938
      vertex 1.511178970336914 3.086270332336426 1.0009994506835938
      vertex -0.10000038146972656 42.263999938964844 1.0009994506835938
    endloop
  endfacet
  facet normal 0 0 1
    outer loop
      vertex 55.62472915649414 40.19873046875 1.0009994506835938
      vertex -0.10000038146972656 42.263999938964844 1.0009994506835938
      vertex 5.949999809265137 36.2140007019043 1.0009994506835938
    endloop
  endfacet
  facet normal 0 0 1
    outer loop
      vertex 59.43600082397461 42.263999938964844 1.0009994506835938
      vertex 57.82482147216797 39.077728271484375 1.0009994506835938
      vertex 59.43600082397461 -0.10000038146972656 1.0009994506835938
    endloop
  endfacet
  facet normal 0 0 1
    outer loop
      vertex 57.64727020263672 38.72926712036133 1.0009994506835938
      vertex 59.43600082397461 -0.10000038146972656 1.0009994506835938
      vertex 57.82482147216797 39.077728271484375 1.0009994506835938
    endloop
  endfacet
  facet normal 0 0 1
    outer loop
      vertex 57.370731353759766 38.452728271484375 1.0009994506835938
      vertex 59.43600082397461 -0.10000038146972656 1.0009994506835938
      vertex 57.64727020263672 38.72926712036133 1.0009994506835938
    endloop
  endfacet
  facet normal 0 0 1
    outer loop
      vertex 53.38600158691406 5.949999809265137 1.0009994506835938
      vertex 57.370731353759766 38.452728271484375 1.0009994506835938
      vertex 57.02227020263672 38.275177001953125 1.0009994506835938
    endloop
  endfacet
  facet normal 0 0 1
    outer loop
      vertex 53.38600158691406 36.2140007019043 1.0009994506835938
      vertex 57.02227020263672 38.275177001953125 1.0009994506835938
      vertex 56.63600158691406 38.2140007019043 1.0009994506835938
    endloop
  endfacet
  facet normal 0 0 1
    outer loop
      vertex 53.38600158691406 36.2140007019043 1.0009994506835938
      vertex 56.63600158691406 38.2140007019043 1.0009994506835938
      vertex 56.24972915649414 38.275177001953125 1.0009994506835938
    endloop
  endfacet
  facet normal 0 0 1
    outer loop
      vertex 53.38600158691406 36.2140007019043 1.0009994506835938
      vertex 56.24972915649414 38.275177001953125 1.0009994506835938
      vertex 55.901268005371094 38.452728271484375 1.0009994506835938
    endloop
  endfacet
  facet normal 0 0 1
    outer loop
      vertex 53.38600158691406 36.2140007019043 1.0009994506835938
      vertex 55.901268005371094 38.452728271484375 1.0009994506835938
      vertex 55.62472915649414 38.72926712036133 1.0009994506835938
    endloop
  endfacet
  facet normal 0 0 1
    outer loop
      vertex 53.38600158691406 36.2140007019043 1.0009994506835938
      vertex 55.62472915649414 38.72926712036133 1.0009994506835938
      vertex 55.44717788696289 39.077728271484375 1.0009994506835938
    endloop
  endfacet
  facet normal 0 0 1
    outer loop
      vertex 53.38600158691406 36.2140007019043 1.0009994506835938
      vertex 55.44717788696289 39.077728271484375 1.0009994506835938
      vertex 55.38600158691406 39.4640007019043 1.0009994506835938
    endloop
  endfacet
  facet normal 0 0 1
    outer loop
      vertex 57.02227020263672 38.275177001953125 1.0009994506835938
      vertex 53.38600158691406 36.2140007019043 1.0009994506835938
      vertex 53.38600158691406 5.949999809265137 1.0009994506835938
    endloop
  endfacet
  facet normal 0 0 1
    outer loop
      vertex 57.370731353759766 38.452728271484375 1.0009994506835938
      vertex 53.38600158691406 5.949999809265137 1.0009994506835938
      vertex 59.43600082397461 -0.10000038146972656 1.0009994506835938
    endloop
  endfacet
  facet normal 0 0 1
    outer loop
      vertex 3.888819694519043 2.3137283325195312 1.0009994506835938
      vertex 53.38600158691406 5.949999809265137 1.0009994506835938
      vertex 5.949999809265137 5.949999809265137 1.0009994506835938
    endloop
  endfacet
  facet normal 0 0 1
    outer loop
      vertex 3.888819694519043 2.3137283325195312 1.0009994506835938
      vertex 5.949999809265137 5.949999809265137 1.0009994506835938
      vertex 3.9499998092651367 2.6999998092651367 1.0009994506835938
    endloop
  endfacet
  facet normal 0 0 1
    outer loop
      vertex 3.711270332336426 1.9652681350708008 1.0009994506835938
      vertex 53.38600158691406 5.949999809265137 1.0009994506835938
      vertex 3.888819694519043 2.3137283325195312 1.0009994506835938
    endloop
  endfacet
  facet normal 0 0 1
    outer loop
      vertex 53.38600158691406 5.949999809265137 1.0009994506835938
      vertex 3.711270332336426 1.9652681350708008 1.0009994506835938
      vertex 59.43600082397461 -0.10000038146972656 1.0009994506835938
    endloop
  endfacet
  facet normal 0 0 1
    outer loop
      vertex 3.4347314834594727 1.6887283325195312 1.0009994506835938
      vertex 59.43600082397461 -0.10000038146972656 1.0009994506835938
      vertex 3.711270332336426 1.9652681350708008 1.0009994506835938
    endloop
  endfacet
  facet normal 0 0 1
    outer loop
      vertex 3.086270332336426 1.511178970336914 1.0009994506835938
      vertex 59.43600082397461 -0.10000038146972656 1.0009994506835938
      vertex 3.4347314834594727 1.6887283325195312 1.0009994506835938
    endloop
  endfacet
  facet normal 0 0 1
    outer loop
      vertex -0.10000038146972656 -0.10000038146972656 1.0009994506835938
      vertex 3.086270332336426 1.511178970336914 1.0009994506835938
      vertex 2.6999998092651367 1.4499998092651367 1.0009994506835938
    endloop
  endfacet
  facet normal 0 0 1
    outer loop
      vertex 3.086270332336426 1.511178970336914 1.0009994506835938
      vertex -0.10000038146972656 -0.10000038146972656 1.0009994506835938
      vertex 59.43600082397461 -0.10000038146972656 1.0009994506835938
    endloop
  endfacet
  facet normal 0 0 1
    outer loop
      vertex 2.3137283325195312 1.511178970336914 1.0009994506835938
      vertex -0.10000038146972656 -0.10000038146972656 1.0009994506835938
      vertex 2.6999998092651367 1.4499998092651367 1.0009994506835938
    endloop
  endfacet
  facet normal 0 0 1
    outer loop
      vertex 1.9652681350708008 1.6887283325195312 1.0009994506835938
      vertex -0.10000038146972656 -0.10000038146972656 1.0009994506835938
      vertex 2.3137283325195312 1.511178970336914 1.0009994506835938
    endloop
  endfacet
  facet normal 0 0 1
    outer loop
      vertex 1.6887283325195312 1.9652681350708008 1.0009994506835938
      vertex -0.10000038146972656 -0.10000038146972656 1.0009994506835938
      vertex 1.9652681350708008 1.6887283325195312 1.0009994506835938
    endloop
  endfacet
  facet normal 0 0 1
    outer loop
      vertex 1.511178970336914 2.3137283325195312 1.0009994506835938
      vertex -0.10000038146972656 -0.10000038146972656 1.0009994506835938
      vertex 1.6887283325195312 1.9652681350708008 1.0009994506835938
    endloop
  endfacet
  facet normal 0 0 1
    outer loop
      vertex 1.4499998092651367 2.6999998092651367 1.0009994506835938
      vertex -0.10000038146972656 -0.10000038146972656 1.0009994506835938
      vertex 1.511178970336914 2.3137283325195312 1.0009994506835938
    endloop
  endfacet
  facet normal 0 0 1
    outer loop
      vertex 1.511178970336914 3.086270332336426 1.0009994506835938
      vertex -0.10000038146972656 -0.10000038146972656 1.0009994506835938
      vertex 1.4499998092651367 2.6999998092651367 1.0009994506835938
    endloop
  endfacet
  facet normal 1 0 0
    outer loop
      vertex -0.10000038146972656 -0.10000038146972656 2.59999942779541
      vertex -0.10000038146972656 42.263999938964844 1.0009994506835938
      vertex -0.10000038146972656 42.263999938964844 2.59999942779541
    endloop
  endfacet
  facet normal 1 0 0
    outer loop
      vertex -0.10000038146972656 42.263999938964844 1.0009994506835938
      vertex -0.10000038146972656 -0.10000038146972656 2.59999942779541
      vertex -0.10000038146972656 -0.10000038146972656 1.0009994506835938
    endloop
  endfacet
  facet normal 0 -1 0
    outer loop
      vertex -0.10000038146972656 42.263999938964844 1.0009994506835938
      vertex 59.43600082397461 42.263999938964844 2.59999942779541
      vertex -0.10000038146972656 42.263999938964844 2.59999942779541
    endloop
  endfacet
  facet normal 0 -1 0
    outer loop
      vertex 59.43600082397461 42.263999938964844 2.59999942779541
      vertex -0.10000038146972656 42.263999938964844 1.0009994506835938
      vertex 59.43600082397461 42.263999938964844 1.0009994506835938
    endloop
  endfacet
  facet normal 0 1 0
    outer loop
      vertex 59.43600082397461 -0.10000038146972656 1.0009994506835938
      vertex -0.10000038146972656 -0.10000038146972656 2.59999942779541
      vertex 59.43600082397461 -0.10000038146972656 2.59999942779541
    endloop
  endfacet
  facet normal 0 1 0
    outer loop
      vertex -0.10000038146972656 -0.10000038146972656 2.59999942779541
      vertex 59.43600082397461 -0.10000038146972656 1.0009994506835938
      vertex -0.10000038146972656 -0.10000038146972656 1.0009994506835938
    endloop
  endfacet
  facet normal -1 0 0
    outer loop
      vertex 53.38600158691406 5.949999809265137 0
      vertex 53.38600158691406 36.2140007019043 1.0009994506835938
      vertex 53.38600158691406 36.2140007019043 0
    endloop
  endfacet
  facet normal -1 0 0
    outer loop
      vertex 53.38600158691406 36.2140007019043 1.0009994506835938
      vertex 53.38600158691406 5.949999809265137 0
      vertex 53.38600158691406 5.949999809265137 1.0009994506835938
    endloop
  endfacet
  facet normal 1 0 0
    outer loop
      vertex 5.949999809265137 5.949999809265137 1.0009994506835938
      vertex 5.949999809265137 36.2140007019043 0
      vertex 5.949999809265137 36.2140007019043 1.0009994506835938
    endloop
  endfacet
  facet normal 1 0 0
    outer loop
      vertex 5.949999809265137 36.2140007019043 0
      vertex 5.949999809265137 5.949999809265137 1.0009994506835938
      vertex 5.949999809265137 5.949999809265137 0
    endloop
  endfacet
  facet normal 0 -1 0
    outer loop
      vertex 5.949999809265137 36.2140007019043 0
      vertex 53.38600158691406 36.2140007019043 1.0009994506835938
      vertex 5.949999809265137 36.2140007019043 1.0009994506835938
    endloop
  endfacet
  facet normal 0 -1 0
    outer loop
      vertex 53.38600158691406 36.2140007019043 1.0009994506835938
      vertex 5.949999809265137 36.2140007019043 0
      vertex 53.38600158691406 36.2140007019043 0
    endloop
  endfacet
  facet normal 0 1 0
    outer loop
      vertex 53.38600158691406 5.949999809265137 0
      vertex 5.949999809265137 5.949999809265137 1.0009994506835938
      vertex 53.38600158691406 5.949999809265137 1.0009994506835938
    endloop
  endfacet
  facet normal 0 1 0
    outer loop
      vertex 5.949999809265137 5.949999809265137 1.0009994506835938
      vertex 53.38600158691406 5.949999809265137 0
      vertex 5.949999809265137 5.949999809265137 0
    endloop
  endfacet
endsolid OpenSCAD_Model
